<svg width="40" height="40" viewBox="0 0 40 40" fill="none" xmlns="http://www.w3.org/2000/svg">
<circle cx="20" cy="20" r="20" fill="#AFAFAF"/>
<path d="M23.5925 11.0272C22.6804 10.0423 21.4063 9.5 20 9.5C18.5863 9.5 17.308 10.0391 16.4 11.0178C15.4822 12.0073 15.035 13.3522 15.14 14.8044C15.3482 17.6694 17.5283 20 20 20C22.4718 20 24.6482 17.6698 24.8596 14.8053C24.966 13.3662 24.516 12.0242 23.5925 11.0272Z" fill="#529FD1"/>
<path d="M28.2498 30.5H11.7498C11.5338 30.5028 11.3199 30.4574 11.1237 30.3672C10.9275 30.2769 10.7538 30.1441 10.6154 29.9783C10.3107 29.6141 10.1879 29.1167 10.2788 28.6138C10.6745 26.4191 11.9092 24.5755 13.8498 23.2812C15.5738 22.1323 17.7577 21.5 19.9998 21.5C22.2418 21.5 24.4257 22.1328 26.1498 23.2812C28.0904 24.575 29.3251 26.4186 29.7207 28.6133C29.8117 29.1163 29.6888 29.6136 29.3842 29.9778C29.2458 30.1437 29.0722 30.2766 28.8759 30.367C28.6797 30.4573 28.4658 30.5028 28.2498 30.5Z" fill="#529FD1"/>
</svg>
