<svg width="68" height="68" viewBox="0 0 68 68" fill="none" xmlns="http://www.w3.org/2000/svg">
<path d="M4.99675 52.6534C6.43675 57.0934 10.8134 59.9267 15.4834 59.9267H15.6667C16.0952 62.0178 17.2324 63.8968 18.8862 65.2463C20.5399 66.5958 22.6089 67.333 24.7434 67.3334C26.2667 67.3334 27.6901 66.95 28.9501 66.29C29.4759 66.0017 29.9135 65.5758 30.2159 65.0579C30.5182 64.54 30.6741 63.9497 30.6668 63.35V4.09003C30.6735 3.32636 30.417 2.58367 29.9404 1.98691C29.4639 1.39014 28.7963 0.975721 28.0501 0.81336C26.3778 0.488545 24.645 0.724029 23.1201 1.48336C20.6401 2.67003 19.1867 5.32003 19.1867 8.07669V8.26003C17.3308 7.88122 15.4033 8.08072 13.6643 8.83159C11.9252 9.58247 10.4583 10.8486 9.46132 12.4592C8.46435 14.0699 7.9853 15.9475 8.08879 17.8389C8.19229 19.7303 8.87333 21.5445 10.0401 23.0367C7.42703 23.4461 5.04634 24.776 3.32755 26.7863C1.60877 28.7966 0.66508 31.3551 0.66675 34C0.66675 37.9267 2.70342 41.37 5.77675 43.3734C4.34342 45.9434 3.87342 49.1934 4.99675 52.6534ZM57.9601 23.0367C59.1268 21.5445 59.8079 19.7303 59.9114 17.8389C60.0149 15.9475 59.5358 14.0699 58.5388 12.4592C57.5419 10.8486 56.0749 9.58247 54.3359 8.83159C52.5969 8.08072 50.6694 7.88122 48.8134 8.26003V8.07669C48.8134 5.32336 47.3567 2.67003 44.8767 1.48336C43.353 0.723803 41.6213 0.488292 39.9501 0.81336C39.2041 0.976294 38.5369 1.39087 38.0605 1.98751C37.584 2.58414 37.3273 3.32652 37.3334 4.09003V63.3467C37.3334 64.5634 37.9734 65.72 39.0534 66.2867C40.3134 66.95 41.7334 67.3334 43.2568 67.3334C45.3917 67.3329 47.4611 66.5952 49.1149 65.245C50.7688 63.8949 51.9057 62.0151 52.3334 59.9234H52.5201C57.1867 59.9234 61.5667 57.09 63.0067 52.65C64.1301 49.19 63.6601 45.94 62.2267 43.37C63.7923 42.3585 65.0798 40.9712 65.9718 39.3345C66.8638 37.6979 67.3319 35.864 67.3334 34C67.3351 31.3551 66.3914 28.7966 64.6726 26.7863C62.9538 24.776 60.5731 23.4461 57.9601 23.0367Z" fill="#173FA6"/>
</svg>

