<svg width="110" height="120" viewBox="0 0 110 120" fill="none" xmlns="http://www.w3.org/2000/svg">
<path d="M25.028 87.308C37.8707 91.78 56.504 95.3347 80.928 97.972L70.952 119.644C50.0827 117.121 35.692 114.771 27.78 112.592C19.868 110.413 13.848 108.521 9.72 106.916L0.26 76.128C7.36933 69.3627 17.2307 63.4 29.844 58.24L61.32 46.028C72.4427 41.3267 80.584 35.9373 85.744 29.86C80.4693 27.108 75.94 25.2733 72.156 24.356C60.6893 21.7187 48.3053 21.3747 35.004 23.324L45.152 2.51199C48.1333 1.36533 52.0893 0.791994 57.02 0.791994C61.9507 0.791994 66.2507 1.07866 69.92 1.65199C73.704 2.22533 77.3733 2.97066 80.928 3.888C88.496 5.952 94.7453 8.64666 99.676 11.972L109.308 38.632C102.772 49.1813 94.2293 57.208 83.68 62.712C78.9787 65.2347 74.1627 67.356 69.232 69.076C64.3013 70.6813 59.3133 72.2867 54.268 73.892C41.9987 77.7907 32.252 82.2627 25.028 87.308Z" fill="#529FD1"/>
</svg>
