<svg width="111" height="119" viewBox="0 0 111 119" fill="none" xmlns="http://www.w3.org/2000/svg">
<path d="M90.324 94.156C75.188 110.668 56.2107 118.924 33.392 118.924C23.5307 118.924 13.44 117.261 3.12 113.936L0.195999 90.544C11.892 93.7547 21.4667 95.36 28.92 95.36C36.488 95.36 43.1387 94.5573 48.872 92.952C54.72 91.3467 59.9947 88.5373 64.696 84.524C57.0133 79.364 46.464 74.032 33.048 68.528C29.264 67.0373 25.7667 65.8333 22.556 64.916L32.36 45.136C54.1467 45.136 72.436 40.7787 87.228 32.064C74.844 25.4133 60.4533 22.4893 44.056 23.292C41.8773 23.4067 39.6987 23.5213 37.52 23.636L48.012 2.48C60.396 0.989328 71.4613 1.79199 81.208 4.888C87.8587 7.06666 94.28 9.876 100.472 13.316L110.448 41.696C97.6053 50.1813 85.68 55.9147 74.672 58.896C70.888 59.928 67.0467 60.788 63.148 61.476C70.6013 65.0307 77.0227 68.7 82.412 72.484L90.324 94.156Z" fill="#173FA6"/>
</svg>
