<svg width="107" height="122" viewBox="0 0 107 122" fill="none" xmlns="http://www.w3.org/2000/svg">
<path d="M86.3 97.736C81.0253 95.672 73.2853 92.8627 63.08 89.308C56.3147 102.839 51.212 113.732 47.772 121.988L29.024 105.476C32.808 96.6467 36.42 88.8493 39.86 82.084C31.26 79.676 19.392 76.58 4.256 72.796L0.644 47.856C12.9133 32.032 29.8267 16.0933 51.384 0.0399988L68.068 13.456C59.812 20.336 52.1867 26.872 45.192 33.064C38.312 39.1413 31.5467 45.792 24.896 53.016C36.592 56.456 45.4787 59.208 51.556 61.272C63.0227 42.1227 76.0373 23.3747 90.6 5.028L106.94 18.444C95.3587 33.8093 84.3507 50.7227 73.916 69.184C83.892 72.8533 91.0587 75.6053 95.416 77.44L86.3 97.736Z" fill="#001140"/>
</svg>
